Simulation
nRows=28
nColumns=15
endheader
time  TH_x TH_y TH_z SC_y  SC_z  SC_x  AC_y  AC_z  AC_x  GH_y  GH_z  GH_yy  EL_x  PS_y
0.75  0.000000  0.000000  0.000000  -43.06846766793789  7.674241530362556  5.264998982634902  51.16925383985746  -11.719642382487175  0.8365036359968213  144.9965553046259  54.41626639223123  -109.323126207891  43.2429344197943  0.000000
0.765  0.000000  0.000000  0.000000  -40.98371733674455  6.818953333896843  5.644445472071358  50.968378454724146  -12.009396428525212  -0.2744844021194914  142.17449356481725  55.357613374439644  -107.85586798146835  42.081072417728755  0.000000
0.78  0.000000  0.000000  0.000000  -39.00323689250408  5.778156706524927  6.087980616487224  51.37223934430083  -12.80549080787174  -1.6765527345202815  139.7902048275403  56.93017096502332  -107.00818756839188  40.922425915033216  0.000000
0.7949999999999999  0.000000  0.000000  0.000000  -36.986818395371515  5.22647646743897  6.70966826002506  50.29707919478633  -13.876702847273389  -3.146990110497982  137.66546822975246  57.643830674730864  -106.30433259673214  39.49550003960689  0.000000
0.8099999999999999  0.000000  0.000000  0.000000  -34.9377198968043  5.1848645186513735  7.52864798192992  49.182906001854185  -15.190643968401913  -4.6478860624331695  135.80441124523392  58.27869132385409  -105.54448425830638  37.75404485292697  0.000000
0.825  0.000000  0.000000  0.000000  -32.70347102753631  5.227018584986818  8.429625696473789  47.62973004743058  -16.3440571054491  -5.908374829584985  134.1586954517448  58.30629457445293  -105.08065867502454  35.97949641135714  0.000000
0.84  0.000000  0.000000  0.000000  -30.555974866635474  5.528760028481449  9.5691401372735  46.556030249496054  -17.278448035964743  -7.125599021282737  132.82595122897973  60.47102798505383  -104.23650898796173  34.60232637094434  0.000000
0.855  0.000000  0.000000  0.000000  -28.677050586413284  6.002674741561224  10.692594477929271  44.006168262927154  -17.534697647114164  -8.298210746628703  131.7594519499602  61.317206868005506  -103.76982661918574  33.03029287593482  0.000000
0.87  0.000000  0.000000  0.000000  -27.078580223868364  6.72095586089367  11.831712353440048  40.33897569457923  -17.51818725738014  -9.636719893290511  131.13813018519588  60.22771346451415  -104.34815690478413  31.309657436683228  0.000000
0.885  0.000000  0.000000  0.000000  -25.574117154568093  7.025831474917912  13.15746821808942  39.361345697026536  -18.350291071550853  -11.069110757569709  130.79521103472882  63.139827592849436  -105.16543999617554  30.365162576116358  0.000000
0.8999999999999999  0.000000  0.000000  0.000000  -24.380813158929758  6.74013096808994  14.312412200930332  40.20423170623222  -20.12339493834967  -12.39592860085839  129.77572576720948  66.60765840892772  -106.08443601477941  29.832185934686322  0.000000
0.9149999999999999  0.000000  0.000000  0.000000  -22.95453212550147  7.054758095476252  15.498569455819817  41.53827883903192  -22.541873945338484  -13.713740477550417  128.8477272800265  68.11649892984354  -107.25298406132337  28.817666817433295  0.000000
0.9299999999999999  0.000000  0.000000  0.000000  -21.48564255868912  8.637191371859814  16.87179888921354  40.3976591386764  -23.983147887251164  -13.681783056291412  129.24325047964575  68.49431370432818  -107.65346916086378  28.12750283887309  0.000000
0.945  0.000000  0.000000  0.000000  -20.14221871573229  10.78596417133773  18.06031815005844  38.488283654148105  -24.306038698639274  -13.0009508658246  129.88516482940858  69.7462002665026  -106.6138807243366  28.12235231351631  0.000000
0.96  0.000000  0.000000  0.000000  -18.110769933292584  11.832662721138096  18.16920446459474  38.87913940778602  -24.655806655395246  -13.104890408381564  129.18420436170803  68.03475206622414  -107.1808373844642  27.542749352456884  0.000000
0.975  0.000000  0.000000  0.000000  -15.550141176271175  12.622770892230431  17.942401976831697  39.52614748216441  -25.11045227031497  -12.684834624373998  129.4436710714574  66.79858292463318  -108.8622555805469  27.13376597945135  0.000000
0.99  0.000000  0.000000  0.000000  -13.471448520692375  13.00785519657579  18.575667514005882  42.18448479501181  -26.12188835262398  -13.03286943118135  130.70019134203966  66.3637724741676  -110.58959419283916  26.97504713741764  0.000000
1.005  0.000000  0.000000  0.000000  -12.492149258196363  13.54685686428018  18.55434204891412  39.83433727814005  -24.605552938408277  -13.20946723871931  128.29672866999616  54.37757905124309  -111.02985426886607  26.19080480017383  0.000000
1.02  0.000000  0.000000  0.000000  -12.479905009344  19.236069221966208  19.820800679101026  35.48143986336193  -22.390862442325325  -11.976580983647729  122.07832337263291  43.610299706289744  -110.76324841681287  25.356035660385547  0.000000
1.035  0.000000  0.000000  0.000000  -10.548689269875403  23.03048959354625  20.95235383950454  33.885017024757  -24.967612145200626  -19.83750110340897  118.83992032897314  43.507147424607815  -109.565107951197  24.656452508721067  0.000000
1.05  0.000000  0.000000  0.000000  -7.47379678615084  22.679500132630153  22.84052434344546  27.206333628604252  -17.659996613252996  -13.31960011707794  116.78130461850064  51.88781150676199  -101.16743362754016  26.08000173431435  0.000000
1.065  0.000000  0.000000  0.000000  -5.36712184767581  21.388332601867997  28.10744123103925  15.272745896097316  -5.323880211486859  -17.132037298906052  117.14333847182972  77.93567754890424  -89.30056519128556  26.249229332821102  0.000000
1.08  0.000000  0.000000  0.000000  -14.649102625847497  nan  58.29865140789273  25.340409412382222  50.31001664221329  -20.98938894797654  122.46805230784179  56.40992404771629  -114.10500775156073  26.230881923699954  0.000000
1.095  0.000000  0.000000  0.000000  -8.187777087709152  nan  45.846065944345874  12.670175973792453  32.2913318326135  7.55253620917845  129.06755364139863  53.06191132530642  -121.43592336174866  28.534415161411214  0.000000
1.1099999999999999  0.000000  0.000000  0.000000  3.5951889148070335  13.84917971290502  23.2437679480394  27.826549282222047  -1.1433348975194793  5.782834930265364  124.09196402800144  96.13976800707755  -90.26583503172007  30.27436392153247  0.000000
1.125  0.000000  0.000000  0.000000  4.133171263437178  9.487648038607926  30.857691154170958  50.53866902167003  6.948955216774694  7.499793473925145  123.43984262809838  80.72585005178306  -92.41367851060731  31.02872917175871  0.000000
1.14  0.000000  0.000000  0.000000  -1.5450525427745057  6.372098782255521  38.3482372701486  39.47531525466902  8.314624509012111  3.748543742627935  127.5111496653635  57.88637324500675  -98.16699078296065  29.78338236182868  0.000000
1.155  0.000000  0.000000  0.000000  1.1750903105240968  5.205777411944353  45.88658693851261  40.01035946094028  10.944796081299327  -0.6884155210876773  128.9198212164706  55.21491712406648  -107.05638719789006  30.164074645390667  0.000000
